<?xml version="1.0" standalone="no"?><!DOCTYPE svg PUBLIC "-//W3C//DTD SVG 1.1//EN" "http://www.w3.org/Graphics/SVG/1.1/DTD/svg11.dtd"><svg class="icon" width="200px" height="153.18px" viewBox="0 0 1337 1024" version="1.1" xmlns="http://www.w3.org/2000/svg"><path fill="#333333" d="M99.555556 924.444444 1237.333333 924.444444 1237.333333 99.555556 99.555556 99.555556 99.555556 924.444444 99.555556 924.444444ZM0 71.19269C0 31.874048 31.728213 0 71.168569 0L1265.72032 0C1305.025707 0 1336.888889 31.769159 1336.888889 71.19269L1336.888889 952.80731C1336.888889 992.125952 1305.160676 1024 1265.72032 1024L71.168569 1024C31.863182 1024 0 992.230841 0 952.80731L0 71.19269 0 71.19269ZM226.398009 99.555556 668.444444 483.555556 1111.471218 99.179179 1237.333333 99.555556 1237.333333 128 700.866702 583.996629C682.960356 599.216996 653.810204 599.116501 636.022187 583.996629L99.555556 128 99.555556 99.555556 226.398009 99.555556Z" /></svg>